<mxfile host="app.diagrams.net" modified="2023-06-23T16:33:29.028Z" agent="Mozilla/5.0 (Windows NT 10.0; Win64; x64) AppleWebKit/537.36 (KHTML, like Gecko) Chrome/113.0.0.0 Safari/537.36 OPR/99.0.0.0 (Edition Yx GX)" version="21.4.0" etag="P92XhRxXbXUyk3io59NI" type="github">
  <diagram name="Страница 1" id="1mmolR92U8KYSvyGp-St">
    <mxGraphModel>
      <root>
        <mxCell id="0" />
        <mxCell id="1" parent="0" />
      </root>
    </mxGraphModel>
  </diagram>
</mxfile>
